<svg xmlns="http://www.w3.org/2000/svg" viewBox="0 0 620 270" role="img" aria-label="brain"><g transform="translate(-227.23889763977706 -60.31167840977098) scale(0.8136624463363799)"><polygon points="573.58,213.48 614.13,212.16 611.81,290.86 587.92,293.10" fill="#203d49" fill-opacity="0.9946093260369897" stroke="#76d5e5" stroke-opacity="0.11935311912443876" stroke-width=".7"/><polygon points="614.13,212.16 644.60,213.15 630.14,293.67 611.81,290.86" fill="#223f4b" fill-opacity="0.9949880566041607" stroke="#76d5e5" stroke-opacity="0.11939856679249927" stroke-width=".7"/><polygon points="580.81,134.03 605.81,133.63 614.13,212.16 573.58,213.48" fill="#1e3844" fill-opacity="0.995214703786413" stroke="#76d5e5" stroke-opacity="0.11942576445436955" stroke-width=".7"/><polygon points="603.44,318.58 587.92,293.10 611.81,290.86" fill="#254551" fill-opacity="0.9954709167366385" stroke="#76d5e5" stroke-opacity="0.129411219175763" stroke-width=".7"/><polygon points="605.81,133.63 628.18,132.52 644.60,213.15 614.13,212.16" fill="#1f3b47" fill-opacity="0.995582406849385" stroke="#76d5e5" stroke-opacity="0.1194698888219262" stroke-width=".7"/><polygon points="603.44,318.58 611.81,290.86 630.14,293.67" fill="#264753" fill-opacity="0.9956120420153334" stroke="#76d5e5" stroke-opacity="0.12942956546199336" stroke-width=".7"/><polygon points="550.35,216.69 573.58,213.48 587.92,293.10 570.33,297.44" fill="#1c3440" fill-opacity="0.9956816822141101" stroke="#76d5e5" stroke-opacity="0.11948180186569321" stroke-width=".7"/><polygon points="656.26,366.35 655.43,330.40 675.76,330.96 676.44,367.12" fill="#5c5642" fill-opacity="0.9958131059423754" stroke="#ffca73" stroke-opacity="0.3584927181392551" stroke-width=".7"/><polygon points="684.95,212.56 725.69,211.21 725.02,292.63 701.94,294.96" fill="#203d49" fill-opacity="0.9958529512135921" stroke="#76d5e5" stroke-opacity="0.11950235414563104" stroke-width=".7"/><polygon points="700.59,308.17 713.55,322.13 701.02,339.33 665.82,345.52 631.06,337.26 618.44,319.81 630.22,306.74" fill="#203d49" fill-opacity="0.9959844524353607" stroke="#76d5e5" stroke-opacity="0.35855440287672985" stroke-width=".7"/><polygon points="603.44,318.58 570.33,297.44 587.92,293.10" fill="#23414d" fill-opacity="0.9959960109354526" stroke="#76d5e5" stroke-opacity="0.12947948142160884" stroke-width=".7"/><polygon points="563.81,133.05 580.81,134.03 573.58,213.48 550.35,216.69" fill="#1c3541" fill-opacity="0.9961703756880067" stroke="#76d5e5" stroke-opacity="0.1195404450825608" stroke-width=".7"/><polygon points="725.69,211.21 761.71,212.20 747.09,295.58 725.02,292.63" fill="#223f4b" fill-opacity="0.9961857846975608" stroke="#76d5e5" stroke-opacity="0.11954229416370729" stroke-width=".7"/><polygon points="656.26,366.35 676.44,367.12 672.67,375.23 651.70,374.38" fill="#5c5642" fill-opacity="0.9963311816322793" stroke="#ffca73" stroke-opacity="0.35867922538762054" stroke-width=".7"/><polygon points="603.44,318.58 630.14,293.67 634.72,298.58" fill="#254551" fill-opacity="0.9963358333584571" stroke="#76d5e5" stroke-opacity="0.12952365833659943" stroke-width=".7"/><polygon points="655.43,330.40 656.26,366.35 651.70,374.38 650.81,337.04" fill="#4b4a3d" fill-opacity="0.9963493525535794" stroke="#ffca73" stroke-opacity="0.35868576691928855" stroke-width=".7"/><polygon points="697.83,130.20 723.25,129.80 725.69,211.21 684.95,212.56" fill="#1e3844" fill-opacity="0.9963840668983046" stroke="#76d5e5" stroke-opacity="0.11956608802779654" stroke-width=".7"/><polygon points="644.60,213.15 658.56,215.90 634.72,298.58 630.14,293.67" fill="#213d49" fill-opacity="0.9964327819559051" stroke="#76d5e5" stroke-opacity="0.11957193383470861" stroke-width=".7"/><polygon points="608.85,329.55 618.44,319.81 631.06,337.26 622.27,348.11" fill="#2e5561" fill-opacity="0.9965252996998739" stroke="#76d5e5" stroke-opacity="0.3587491078919546" stroke-width=".7"/><polygon points="676.44,367.12 675.76,330.96 671.94,337.66 672.67,375.23" fill="#4b4a3d" fill-opacity="0.9965401308835347" stroke="#ffca73" stroke-opacity="0.3587544471180725" stroke-width=".7"/><polygon points="675.76,330.96 655.43,330.40 650.81,337.04 671.94,337.66" fill="#5c5642" fill-opacity="0.9965577916889576" stroke="#ffca73" stroke-opacity="0.35876080500802476" stroke-width=".7"/><polygon points="722.56,321.45 701.94,294.96 725.02,292.63" fill="#254551" fill-opacity="0.9966073309737111" stroke="#76d5e5" stroke-opacity="0.12955895302658246" stroke-width=".7"/><polygon points="596.51,109.81 605.81,133.63 580.81,134.03" fill="#1f3a46" fill-opacity="0.9966141402584947" stroke="#76d5e5" stroke-opacity="0.1295598382336043" stroke-width=".7"/><polygon points="621.31,315.72 630.22,306.74 618.44,319.81 608.85,329.55" fill="#376572" fill-opacity="0.9966194936789865" stroke="#76d5e5" stroke-opacity="0.3587830177244351" stroke-width=".7"/><polygon points="622.27,348.11 631.06,337.26 665.82,345.52 659.17,357.00" fill="#366471" fill-opacity="0.996668121305669" stroke="#76d5e5" stroke-opacity="0.3588005236700408" stroke-width=".7"/><polygon points="723.25,129.80 748.60,128.58 761.71,212.20 725.69,211.21" fill="#1f3b47" fill-opacity="0.9967041715782752" stroke="#76d5e5" stroke-opacity="0.11960450058939302" stroke-width=".7"/><polygon points="722.56,321.45 725.02,292.63 747.09,295.58" fill="#264753" fill-opacity="0.9967298795235022" stroke="#76d5e5" stroke-opacity="0.1295748843380553" stroke-width=".7"/><polygon points="596.51,109.81 628.18,132.52 605.81,133.63" fill="#1e3945" fill-opacity="0.9967486514812998" stroke="#76d5e5" stroke-opacity="0.12957732469256897" stroke-width=".7"/><polygon points="603.44,318.58 571.69,302.95 570.33,297.44" fill="#1f3b47" fill-opacity="0.996762189552951" stroke="#76d5e5" stroke-opacity="0.12957908464188364" stroke-width=".7"/><polygon points="668.11,215.83 684.95,212.56 701.94,294.96 687.51,299.52" fill="#1c3440" fill-opacity="0.9967902348093967" stroke="#76d5e5" stroke-opacity="0.1196148281771276" stroke-width=".7"/><polygon points="628.18,132.52 630.21,130.85 658.56,215.90 644.60,213.15" fill="#1d3642" fill-opacity="0.9968857811895548" stroke="#76d5e5" stroke-opacity="0.11962629374274658" stroke-width=".7"/><polygon points="659.17,357.00 665.82,345.52 701.02,339.33 696.56,350.56" fill="#386875" fill-opacity="0.9969791308164084" stroke="#76d5e5" stroke-opacity="0.358912487093907" stroke-width=".7"/><polygon points="596.51,109.81 580.81,134.03 563.81,133.05" fill="#22404c" fill-opacity="0.9970050100319556" stroke="#76d5e5" stroke-opacity="0.12961065130415422" stroke-width=".7"/><polygon points="696.07,317.44 700.59,308.17 630.22,306.74 621.31,315.72" fill="#386673" fill-opacity="0.9970252769098535" stroke="#76d5e5" stroke-opacity="0.35892909968754727" stroke-width=".7"/><polygon points="651.70,374.38 672.67,375.23 671.94,337.66 650.81,337.04" fill="#5c5642" fill-opacity="0.9970273218204906" stroke="#ffca73" stroke-opacity="0.3589298358553766" stroke-width=".7"/><polygon points="722.56,321.45 687.51,299.52 701.94,294.96" fill="#23414d" fill-opacity="0.9970616238126873" stroke="#76d5e5" stroke-opacity="0.12961801109564935" stroke-width=".7"/><polygon points="603.44,318.58 634.72,298.58 620.96,304.05" fill="#22404c" fill-opacity="0.9970966659184877" stroke="#76d5e5" stroke-opacity="0.1296225665694034" stroke-width=".7"/><polygon points="684.72,129.04 697.83,130.20 684.95,212.56 668.11,215.83" fill="#1c3541" fill-opacity="0.9972113899464063" stroke="#76d5e5" stroke-opacity="0.11966536679356876" stroke-width=".7"/><polygon points="545.81,220.19 550.35,216.69 570.33,297.44 571.69,302.95" fill="#1d3742" fill-opacity="0.9972438395881973" stroke="#76d5e5" stroke-opacity="0.11966926075058366" stroke-width=".7"/><polygon points="696.56,350.56 701.02,339.33 713.55,322.13 709.87,332.32" fill="#366370" fill-opacity="0.9972495064428559" stroke="#76d5e5" stroke-opacity="0.35900982231942813" stroke-width=".7"/><polygon points="596.51,109.81 630.21,130.85 628.18,132.52" fill="#203c48" fill-opacity="0.9973101450755479" stroke="#76d5e5" stroke-opacity="0.12965031885982123" stroke-width=".7"/><polygon points="603.44,318.58 593.87,305.04 571.69,302.95" fill="#1e3944" fill-opacity="0.9973255190816235" stroke="#76d5e5" stroke-opacity="0.12965231748061107" stroke-width=".7"/><polygon points="709.87,332.32 713.55,322.13 700.59,308.17 696.07,317.44" fill="#2f5864" fill-opacity="0.9973335113520654" stroke="#76d5e5" stroke-opacity="0.35904006408674355" stroke-width=".7"/><polygon points="722.56,321.45 747.09,295.58 756.71,300.76" fill="#254551" fill-opacity="0.9973529474109479" stroke="#76d5e5" stroke-opacity="0.12965588316342325" stroke-width=".7"/><polygon points="761.71,212.20 784.56,214.99 756.71,300.76 747.09,295.58" fill="#213d49" fill-opacity="0.9974356243085145" stroke="#76d5e5" stroke-opacity="0.11969227491702174" stroke-width=".7"/><polygon points="603.44,318.58 620.96,304.05 593.87,305.04" fill="#1f3a46" fill-opacity="0.9974614348694946" stroke="#76d5e5" stroke-opacity="0.1296699865330343" stroke-width=".7"/><polygon points="720.51,104.85 723.25,129.80 697.83,130.20" fill="#1f3a46" fill-opacity="0.9975897205664794" stroke="#76d5e5" stroke-opacity="0.12968666367364234" stroke-width=".7"/><polygon points="567.78,131.40 563.81,133.05 550.35,216.69 545.81,220.19" fill="#203c48" fill-opacity="0.997641546057515" stroke="#76d5e5" stroke-opacity="0.1197169855269018" stroke-width=".7"/><polyline points="622.83,339.78 658.52,350.74" fill="none" stroke="#ffca73" stroke-opacity="0.6783988700088015" stroke-width="1.15" stroke-linecap="round" stroke-linejoin="round"/><polygon points="596.51,109.81 563.81,133.05 567.78,131.40" fill="#254551" fill-opacity="0.9976750818987206" stroke="#76d5e5" stroke-opacity="0.12969776064683367" stroke-width=".7"/><polyline points="622.48,327.97 658.25,338.83" fill="none" stroke="#ffca73" stroke-opacity="0.6784374447826288" stroke-width="1.15" stroke-linecap="round" stroke-linejoin="round"/><polygon points="720.51,104.85 748.60,128.58 723.25,129.80" fill="#1e3945" fill-opacity="0.9977035075224803" stroke="#76d5e5" stroke-opacity="0.12970145597792243" stroke-width=".7"/><polygon points="722.56,321.45 694.22,305.34 687.51,299.52" fill="#1f3b47" fill-opacity="0.9977149347930834" stroke="#76d5e5" stroke-opacity="0.12970294152310086" stroke-width=".7"/><polygon points="621.31,315.72 608.85,329.55 622.27,348.11 659.17,357.00 696.56,350.56 709.87,332.32 696.07,317.44" fill="#274955" fill-opacity="0.9977366473813032" stroke="#76d5e5" stroke-opacity="0.35918519305726915" stroke-width=".7"/><polygon points="658.56,215.90 628.13,219.35 620.96,304.05 634.72,298.58" fill="#1b333f" fill-opacity="0.9977893888368492" stroke="#76d5e5" stroke-opacity="0.1197347266604219" stroke-width=".7"/><polyline points="555.02,288.42 543.56,269.76" fill="none" stroke="#ffca73" stroke-opacity="0.878058951496397" stroke-width="1.45" stroke-linecap="round" stroke-linejoin="round"/><polygon points="748.60,128.58 756.26,126.66 784.56,214.99 761.71,212.20" fill="#1d3642" fill-opacity="0.9978190363065613" stroke="#76d5e5" stroke-opacity="0.11973828435678735" stroke-width=".7"/><polyline points="658.52,350.74 695.02,341.98" fill="none" stroke="#ffca73" stroke-opacity="0.6785710464577828" stroke-width="1.15" stroke-linecap="round" stroke-linejoin="round"/><polygon points="720.51,104.85 697.83,130.20 684.72,129.04" fill="#22404c" fill-opacity="0.9979190711689436" stroke="#76d5e5" stroke-opacity="0.12972947925196268" stroke-width=".7"/><polygon points="596.51,109.81 614.16,129.79 630.21,130.85" fill="#22404c" fill-opacity="0.9979486696511208" stroke="#76d5e5" stroke-opacity="0.12973332705464571" stroke-width=".7"/><polyline points="658.25,338.83 694.83,329.91" fill="none" stroke="#ffca73" stroke-opacity="0.6786075233687073" stroke-width="1.15" stroke-linecap="round" stroke-linejoin="round"/><polygon points="722.56,321.45 756.71,300.76 747.47,306.52" fill="#22404c" fill-opacity="0.9979956956175091" stroke="#76d5e5" stroke-opacity="0.1297394404302762" stroke-width=".7"/><polyline points="552.26,134.39 541.84,152.22" fill="none" stroke="#ffca73" stroke-opacity="0.8782587569713337" stroke-width="1.45" stroke-linecap="round" stroke-linejoin="round"/><polygon points="672.47,219.41 668.11,215.83 687.51,299.52 694.22,305.34" fill="#1d3742" fill-opacity="0.9981181990653367" stroke="#76d5e5" stroke-opacity="0.1197741838878404" stroke-width=".7"/><polygon points="630.21,130.85 614.16,129.79 628.13,219.35 658.56,215.90" fill="#1c3641" fill-opacity="0.9981379806484942" stroke="#76d5e5" stroke-opacity="0.1197765576778193" stroke-width=".7"/><polygon points="720.51,104.85 756.26,126.66 748.60,128.58" fill="#203c48" fill-opacity="0.9981731631035495" stroke="#76d5e5" stroke-opacity="0.12976251120346144" stroke-width=".7"/><polygon points="722.56,321.45 719.73,307.56 694.22,305.34" fill="#1e3944" fill-opacity="0.9981858864345807" stroke="#76d5e5" stroke-opacity="0.1297641652364955" stroke-width=".7"/><polygon points="596.51,109.81 567.78,131.40 586.39,129.80" fill="#264753" fill-opacity="0.9981999628930525" stroke="#76d5e5" stroke-opacity="0.12976599517609683" stroke-width=".7"/><polygon points="583.17,221.33 545.81,220.19 571.69,302.95 593.87,305.04" fill="#1f3b46" fill-opacity="0.9982461258472519" stroke="#76d5e5" stroke-opacity="0.11978953510167023" stroke-width=".7"/><polygon points="722.56,321.45 747.47,306.52 719.73,307.56" fill="#1f3a46" fill-opacity="0.9982980107816919" stroke="#76d5e5" stroke-opacity="0.12977874140161996" stroke-width=".7"/><polygon points="596.51,109.81 586.39,129.80 614.16,129.79" fill="#254551" fill-opacity="0.9983028736047246" stroke="#76d5e5" stroke-opacity="0.1297793735686142" stroke-width=".7"/><polyline points="566.70,285.47 555.02,288.42" fill="none" stroke="#ffca73" stroke-opacity="0.8785362923360841" stroke-width="1.45" stroke-linecap="round" stroke-linejoin="round"/><polyline points="647.08,245.11 658.90,306.51" fill="none" stroke="#ffca73" stroke-opacity="0.9484440287970806" stroke-width="1.8" stroke-linecap="round" stroke-linejoin="round"/><polyline points="548.34,245.94 537.64,238.15" fill="none" stroke="#ffca73" stroke-opacity="0.878584646527504" stroke-width="1.45" stroke-linecap="round" stroke-linejoin="round"/><polygon points="628.13,219.35 583.17,221.33 593.87,305.04 620.96,304.05" fill="#1d3743" fill-opacity="0.9984192402488052" stroke="#76d5e5" stroke-opacity="0.11981030882985662" stroke-width=".7"/><polygon points="694.13,127.14 684.72,129.04 668.11,215.83 672.47,219.41" fill="#203c48" fill-opacity="0.998445537190729" stroke="#76d5e5" stroke-opacity="0.11981346446288749" stroke-width=".7"/><polygon points="720.51,104.85 684.72,129.04 694.13,127.14" fill="#254551" fill-opacity="0.9984728631445743" stroke="#76d5e5" stroke-opacity="0.12980147220879465" stroke-width=".7"/><polyline points="637.41,277.39 618.87,291.84" fill="none" stroke="#ffca73" stroke-opacity="0.878718204641161" stroke-width="1.45" stroke-linecap="round" stroke-linejoin="round"/><polyline points="546.23,190.51 535.98,200.37" fill="none" stroke="#ffca73" stroke-opacity="0.8787208251454623" stroke-width="1.45" stroke-linecap="round" stroke-linejoin="round"/><polygon points="784.56,214.99 760.60,218.52 747.47,306.52 756.71,300.76" fill="#1b333f" fill-opacity="0.9985656427995404" stroke="#76d5e5" stroke-opacity="0.11982787713594484" stroke-width=".7"/><polygon points="586.39,129.80 567.78,131.40 545.81,220.19 583.17,221.33" fill="#22404c" fill-opacity="0.9985948022577709" stroke="#76d5e5" stroke-opacity="0.1198313762709325" stroke-width=".7"/><polyline points="563.41,136.61 552.26,134.39" fill="none" stroke="#ffca73" stroke-opacity="0.8787729909837185" stroke-width="1.45" stroke-linecap="round" stroke-linejoin="round"/><polyline points="655.22,113.88 645.77,162.10" fill="none" stroke="#ffca73" stroke-opacity="0.9487346974071583" stroke-width="1.8" stroke-linecap="round" stroke-linejoin="round"/><polygon points="720.51,104.85 744.38,125.40 756.26,126.66" fill="#22404c" fill-opacity="0.9986939292489612" stroke="#76d5e5" stroke-opacity="0.12983021080236495" stroke-width=".7"/><polyline points="636.82,141.32 616.49,129.59" fill="none" stroke="#ffca73" stroke-opacity="0.8788724663515399" stroke-width="1.45" stroke-linecap="round" stroke-linejoin="round"/><polygon points="614.16,129.79 586.39,129.80 583.17,221.33 628.13,219.35" fill="#203c47" fill-opacity="0.9987439261469007" stroke="#76d5e5" stroke-opacity="0.11984927113762807" stroke-width=".7"/><polyline points="618.87,291.84 598.59,281.18" fill="none" stroke="#ffca73" stroke-opacity="0.8789042334184132" stroke-width="1.45" stroke-linecap="round" stroke-linejoin="round"/><polyline points="580.22,271.87 566.70,285.47" fill="none" stroke="#ffca73" stroke-opacity="0.8789155399453525" stroke-width="1.45" stroke-linecap="round" stroke-linejoin="round"/><polyline points="671.12,277.77 687.14,292.92" fill="none" stroke="#ffca73" stroke-opacity="0.8789511495023957" stroke-width="1.45" stroke-linecap="round" stroke-linejoin="round"/><polygon points="756.26,126.66 744.38,125.40 760.60,218.52 784.56,214.99" fill="#1c3641" fill-opacity="0.9988447161313021" stroke="#76d5e5" stroke-opacity="0.11986136593575625" stroke-width=".7"/><polyline points="560.95,230.10 548.34,245.94" fill="none" stroke="#ffca73" stroke-opacity="0.8789934629970846" stroke-width="1.45" stroke-linecap="round" stroke-linejoin="round"/><polygon points="720.51,104.85 694.13,127.14 717.52,125.34" fill="#264753" fill-opacity="0.9988936439756302" stroke="#76d5e5" stroke-opacity="0.12985617371683192" stroke-width=".7"/><polyline points="598.59,281.18 580.22,271.87" fill="none" stroke="#ffca73" stroke-opacity="0.8790423727850621" stroke-width="1.45" stroke-linecap="round" stroke-linejoin="round"/><polygon points="716.56,220.56 672.47,219.41 694.22,305.34 719.73,307.56" fill="#1f3b46" fill-opacity="0.998929931268572" stroke="#76d5e5" stroke-opacity="0.11987159175222864" stroke-width=".7"/><polyline points="560.25,177.77 546.23,190.51" fill="none" stroke="#ffca73" stroke-opacity="0.8790810800817381" stroke-width="1.45" stroke-linecap="round" stroke-linejoin="round"/><polyline points="670.67,140.31 685.82,127.25" fill="none" stroke="#ffca73" stroke-opacity="0.8790904586318617" stroke-width="1.45" stroke-linecap="round" stroke-linejoin="round"/><polygon points="720.51,104.85 717.52,125.34 744.38,125.40" fill="#254551" fill-opacity="0.9989743514341158" stroke="#76d5e5" stroke-opacity="0.12986666568643507" stroke-width=".7"/><polyline points="577.32,152.61 563.41,136.61" fill="none" stroke="#ffca73" stroke-opacity="0.8791299265766825" stroke-width="1.45" stroke-linecap="round" stroke-linejoin="round"/><polyline points="616.49,129.59 595.50,144.21" fill="none" stroke="#ffca73" stroke-opacity="0.879134209721498" stroke-width="1.45" stroke-linecap="round" stroke-linejoin="round"/><polyline points="758.42,291.49 776.40,271.92" fill="none" stroke="#ffca73" stroke-opacity="0.8791430478736365" stroke-width="1.45" stroke-linecap="round" stroke-linejoin="round"/><polyline points="633.27,224.50 613.96,242.59" fill="none" stroke="#ffca73" stroke-opacity="0.8791663280859375" stroke-width="1.45" stroke-linecap="round" stroke-linejoin="round"/><polyline points="645.77,162.10 654.08,203.13" fill="none" stroke="#ffca73" stroke-opacity="0.9491078973931676" stroke-width="1.8" stroke-linecap="round" stroke-linejoin="round"/><polyline points="654.08,203.13 647.08,245.11" fill="none" stroke="#ffca73" stroke-opacity="0.9491082768696637" stroke-width="1.8" stroke-linecap="round" stroke-linejoin="round"/><polygon points="760.60,218.52 716.56,220.56 719.73,307.56 747.47,306.52" fill="#1d3743" fill-opacity="0.9990647492208922" stroke="#76d5e5" stroke-opacity="0.11988776990650706" stroke-width=".7"/><polyline points="633.25,178.01 612.73,183.58" fill="none" stroke="#ffca73" stroke-opacity="0.8792150892777452" stroke-width="1.45" stroke-linecap="round" stroke-linejoin="round"/><polyline points="576.85,228.67 560.95,230.10" fill="none" stroke="#ffca73" stroke-opacity="0.8792194831441095" stroke-width="1.45" stroke-linecap="round" stroke-linejoin="round"/><polyline points="613.96,242.59 595.36,246.13" fill="none" stroke="#ffca73" stroke-opacity="0.8792412297920217" stroke-width="1.45" stroke-linecap="round" stroke-linejoin="round"/><polyline points="687.14,292.92 703.20,282.51" fill="none" stroke="#ffca73" stroke-opacity="0.8792493874879383" stroke-width="1.45" stroke-linecap="round" stroke-linejoin="round"/><polyline points="595.50,144.21 577.32,152.61" fill="none" stroke="#ffca73" stroke-opacity="0.8792523880316508" stroke-width="1.45" stroke-linecap="round" stroke-linejoin="round"/><polyline points="576.03,191.74 560.25,177.77" fill="none" stroke="#ffca73" stroke-opacity="0.8792645599961391" stroke-width="1.45" stroke-linecap="round" stroke-linejoin="round"/><polyline points="595.36,246.13 576.85,228.67" fill="none" stroke="#ffca73" stroke-opacity="0.879271425657365" stroke-width="1.45" stroke-linecap="round" stroke-linejoin="round"/><polyline points="758.27,127.61 776.46,145.78" fill="none" stroke="#ffca73" stroke-opacity="0.8792749601430104" stroke-width="1.45" stroke-linecap="round" stroke-linejoin="round"/><polygon points="717.52,125.34 694.13,127.14 672.47,219.41 716.56,220.56" fill="#22404c" fill-opacity="0.9991991734281345" stroke="#76d5e5" stroke-opacity="0.11990390081137613" stroke-width=".7"/><polyline points="739.82,287.91 758.42,291.49" fill="none" stroke="#ffca73" stroke-opacity="0.8793385491056687" stroke-width="1.45" stroke-linecap="round" stroke-linejoin="round"/><polyline points="612.73,183.58 593.70,200.72" fill="none" stroke="#ffca73" stroke-opacity="0.879340314000282" stroke-width="1.45" stroke-linecap="round" stroke-linejoin="round"/><polyline points="593.70,200.72 576.03,191.74" fill="none" stroke="#ffca73" stroke-opacity="0.8793486657095934" stroke-width="1.45" stroke-linecap="round" stroke-linejoin="round"/><polyline points="668.00,224.33 684.40,242.65" fill="none" stroke="#ffca73" stroke-opacity="0.8793525587314264" stroke-width="1.45" stroke-linecap="round" stroke-linejoin="round"/><polygon points="744.38,125.40 717.52,125.34 716.56,220.56 760.60,218.52" fill="#203c47" fill-opacity="0.9993112055114066" stroke="#76d5e5" stroke-opacity="0.11991734466136879" stroke-width=".7"/><polyline points="667.98,177.35 683.71,182.36" fill="none" stroke="#ffca73" stroke-opacity="0.8793955172089856" stroke-width="1.45" stroke-linecap="round" stroke-linejoin="round"/><polyline points="685.82,127.25 701.96,141.07" fill="none" stroke="#ffca73" stroke-opacity="0.8794379122699384" stroke-width="1.45" stroke-linecap="round" stroke-linejoin="round"/><polyline points="703.20,282.51 720.87,273.26" fill="none" stroke="#ffca73" stroke-opacity="0.8794735347559444" stroke-width="1.45" stroke-linecap="round" stroke-linejoin="round"/><polyline points="758.04,246.33 776.59,238.01" fill="none" stroke="#ffca73" stroke-opacity="0.879480715971652" stroke-width="1.45" stroke-linecap="round" stroke-linejoin="round"/><polyline points="720.87,273.26 739.82,287.91" fill="none" stroke="#ffca73" stroke-opacity="0.8794870228288366" stroke-width="1.45" stroke-linecap="round" stroke-linejoin="round"/><polyline points="739.31,130.96 758.27,127.61" fill="none" stroke="#ffca73" stroke-opacity="0.8794951946916475" stroke-width="1.45" stroke-linecap="round" stroke-linejoin="round"/><polyline points="684.40,242.65 701.90,246.33" fill="none" stroke="#ffca73" stroke-opacity="0.8795236989722506" stroke-width="1.45" stroke-linecap="round" stroke-linejoin="round"/><polyline points="757.92,187.24 776.64,197.38" fill="none" stroke="#ffca73" stroke-opacity="0.8795624425871896" stroke-width="1.45" stroke-linecap="round" stroke-linejoin="round"/><polyline points="683.71,182.36 701.23,199.42" fill="none" stroke="#ffca73" stroke-opacity="0.879601701628117" stroke-width="1.45" stroke-linecap="round" stroke-linejoin="round"/><polyline points="701.96,141.07 720.09,148.75" fill="none" stroke="#ffca73" stroke-opacity="0.8796264708773646" stroke-width="1.45" stroke-linecap="round" stroke-linejoin="round"/><polyline points="720.09,148.75 739.31,130.96" fill="none" stroke="#ffca73" stroke-opacity="0.879631489912006" stroke-width="1.45" stroke-linecap="round" stroke-linejoin="round"/><polyline points="738.92,229.55 758.04,246.33" fill="none" stroke="#ffca73" stroke-opacity="0.8796335199521438" stroke-width="1.45" stroke-linecap="round" stroke-linejoin="round"/><polyline points="701.90,246.33 719.96,228.17" fill="none" stroke="#ffca73" stroke-opacity="0.8796399463189554" stroke-width="1.45" stroke-linecap="round" stroke-linejoin="round"/><polyline points="738.81,174.32 757.92,187.24" fill="none" stroke="#ffca73" stroke-opacity="0.8796859226906453" stroke-width="1.45" stroke-linecap="round" stroke-linejoin="round"/><polyline points="719.96,228.17 738.92,229.55" fill="none" stroke="#ffca73" stroke-opacity="0.8796892157460297" stroke-width="1.45" stroke-linecap="round" stroke-linejoin="round"/><polyline points="701.23,199.42 719.74,189.59" fill="none" stroke="#ffca73" stroke-opacity="0.8796938143525715" stroke-width="1.45" stroke-linecap="round" stroke-linejoin="round"/><polyline points="719.74,189.59 738.81,174.32" fill="none" stroke="#ffca73" stroke-opacity="0.8797175582563553" stroke-width="1.45" stroke-linecap="round" stroke-linejoin="round"/></g></svg>
